<svg version="1.2" xmlns="http://www.w3.org/2000/svg" viewBox="0 0 1425 317" width="1425" height="317">
	<title>logo-slogan-home-svg</title>
	<style>
		.s0 { fill: #ffffff } 
	</style>
	<path id="Layer" class="s0" d="m247.6 86.6c-84.6 0-154.8 65.7-159.6 149.3 0 2.1 0.6 4 2.2 5.6 1.3 1.6 3.5 2.4 5.6 2.4h56.5c4 0 7.2-2.9 7.8-7.2 4.2-45 42-79.1 87.8-79.1 45.8 0 83.5 34.1 87.8 79.1 0.3 4 3.8 7.2 7.8 7.2h56.2c2.2 0 4.3-0.8 5.7-2.4 1.3-1.6 2.1-3.5 2.1-5.6-5.1-83.9-75.3-149.3-159.9-149.3zm0 230.2c-40.1 0-72.5-32.1-72.5-71.8 0-39.7 32.4-71.8 72.5-71.8 40.2 0 72.6 32.1 72.6 71.8 0 39.7-32.4 71.8-72.6 71.8zm0-316.7c-64.2 0-125.3 24.4-171.6 68.6-46.1 44.2-72.9 103.4-75.3 166.9 0 2.1 0.8 4 2.2 5.6q2.4 2.4 5.6 2.4h56c4 0 7.5-3.2 7.7-7.2 4.6-93 81.4-165.6 175.4-165.6 93.8 0 170.9 72.6 175.4 165.6 0.3 4 3.5 7.2 7.8 7.2h56q3.2 0 5.6-2.4c1.6-1.6 2.1-3.5 2.1-5.6-2.4-63.5-29.2-122.7-75.2-166.9-46.3-44-107.4-68.6-171.7-68.6z"/>
	<path id="Layer" fill-rule="evenodd" class="s0" d="m787.7 33l14 206.6c0 0.6-0.3 1.1-0.6 1.6-0.5 0.3-1 0.6-1.6 0.6h-40.4c-1.1 0-2.1-0.8-2.1-1.9l-7.5-172h-0.3l-47.4 172.5c-0.3 1.1-1.1 1.6-1.9 1.6h-47.9c-0.8 0-1.6-0.8-1.9-1.6l-45.8-172.5h-0.3l-10.1 172c-0.3 1.1-1.1 1.9-2.2 1.9h-34.8c-0.5 0-1.3 0-1.6-0.6-0.3-0.5-0.5-1-0.5-1.6l13.9-206.6c0.3-1 1.1-1.8 2.1-1.8h67c0.8 0 1.6 0.8 1.9 1.6l38.8 156.4h0.5l40.2-156.4c0-1.1 0.8-1.6 1.9-1.6h64.2c1.1 0 2.2 0.8 2.4 1.8zm168.8 63.5c8.8 8.6 13.3 20.9 13.3 36.8v105.8c0 1.1-0.8 2.1-1.8 2.1-25.2 2.7-43.9 4-61.9 4-3.5 0-7-0.2-10.4-0.2-38.6-0.6-74.2-7.3-74.2-52.3 0-12.8 3.7-23.3 11.5-30.8 18.5-18.2 54.9-18.2 87-18.2h3.2c0-22.5-1-31.1-36.6-31.1-21.5 0-42.9 3.5-52.3 5.6-0.5 0.3-1 0-1.6-0.2q-0.8-0.8-0.8-1.6v-29.2c0-0.8 0.8-1.6 1.6-1.9 13.4-3 38.9-5.6 55.5-5.6 25.9-0.3 51.9 1.6 67.5 16.8zm-55.7 78c-18.3 0-31.1 1.4-31.1 19.8 0 18.5 12.8 19.9 31.1 19.9 7.7 0 14.4-0.6 22.4-1.6v-37.8c-4-0.3-11.5-0.3-22.4-0.3zm226.8 33.5q0.8 0.8 0.8 1.6v28.1c0 0.8-0.8 1.7-1.6 1.9-14 3.5-28.2 5.1-45.3 5.1-57 0-91-31.9-91-85.5 0-39.6 27.5-79.8 89.1-79.8 17.2 0 32.4 1.6 45.8 4.6 1.1 0 1.6 0.8 1.6 1.8v27.6q0 1.2-0.8 1.6c-0.5 0.6-1 0.6-1.6 0.6-11.2-1.4-19.3-2.2-28.6-2.2-41.3 0-57.3 13.7-57.3 48 0 34.5 16.6 48.7 57.3 48.7 12.3 0 19.5-0.8 27-1.8l2.7-0.3c0.5 0 1.1 0 1.9 0zm126.6-90c0 1.3-1 2.1-2.1 2.1h-2.4c-15.3 0-38 0-52 9.1v110.7c0 1.3-1 2.1-2.1 2.1h-42.3c-1.4 0-2.2-1-2.2-2.1v-155.1c0-1.4 1.1-2.2 2.2-2.2h37.5c1.3 0 2.1 1.1 2.1 2.2v10.7c25.2-14.2 42.3-14 56.2-14h2.7c1.4 0 2.2 1.1 2.2 2.2zm169.7 44.2c0 48.8-35 82.8-84.8 82.8-52.8 0-85.5-31.6-85.5-82.8 0-50.9 32.7-82.8 85.5-82.8 52.2 0 84.8 31.6 84.8 82.8zm-85.1-49.6c-26.5 0-37.2 14.5-37.2 50.1 0 35.4 10.7 49.9 37.2 49.9 26.2 0 36.9-14.5 36.9-49.9 0-35.6-10.7-50.1-36.9-50.1z"/>
</svg>