<svg version="1.2" xmlns="http://www.w3.org/2000/svg" viewBox="0 0 1544 416" width="1544" height="416">
	<title>Royal_Bank_of_Scotland_logo-svg</title>
	<style>
		.s0 { fill: #ffffff } 
	</style>
	<g id="layer1">
		<g id="g1607">
			<g id="g124">
				<path id="path126" class="s0" d="m178.2 135.5c-35 12.5-47 46.3-47 46.3-4.7 12.5-17.2 21.9-31.3 21.9h-66.2c-18.2 0-33.4-15.1-33.4-33.3 0-18.2 12.5-32.8 33.4-32.8l52.5 0.1-76-76c-13-13-13-33.8 0-46.8 13.1-12.9 33.9-12.9 47 0l75.6 75.3v-51.9c0-18.2 14.6-33.2 33.3-33.2 18.3 0 32.9 15 32.9 33.2v66c0 14.1-8.3 27.1-20.8 31.2zm-12.1 279.7c-18.2 0-32.8-12-32.3-32.7l0.1-52.7-76.2 76c-13 13.1-34.4 13.1-47 0-13-12.9-13-34.3 0-46.7l75.5-75.4h-52c-18.7 0-33.3-15.1-33.3-33.3 0-18.2 14.6-33.2 33.3-33.2h66.2c14.1 0 26.6 8.3 31.3 20.8 12 35.3 45.9 47.2 45.9 47.2 13.1 4.7 21.9 16.7 21.9 31.2v66.1c0 18.2-14.6 32.7-33.4 32.7zm213.3-132l-52.6-0.1 76 76c13.1 13 13.1 33.8 0 46.7-13 13.1-33.9 13.1-46.9 0l-75.6-75.3v52c0 19.7-15.1 33.3-33.4 33.3-18.2 0-33.4-15.1-33.4-33.3v-66.1c0-14 8.9-27 21.5-31.2 34.9-11.9 46.9-46.2 46.9-46.2 4.7-12.5 17.2-21.8 31.3-21.8h66.2c18.3 0 33.4 15 33.4 33.2 0 18.2-13.6 32.8-33.4 32.8zm0.5-80.1h-66.2c-14.1 0-27.1-8.3-31.3-20.8-12-34.8-46.4-47.3-46.4-47.3-12.5-4.7-21.9-16.6-21.9-31.2v-66c0-18.2 15.1-32.7 33.4-32.7 18.2 0 32.8 13.5 32.8 32.7v52.9l76.1-76.3c13.1-13 33.9-13 47 0 13 13 13 34.3 0 47.3l-75.1 74.9h51.6c18.3 0 33.4 15 33.4 33.2 0 18.2-15.1 33.3-33.4 33.3z"/>
			</g>
			<g id="g220">
				<path id="path130" fill-rule="evenodd" class="s0" d="m535.9 167.6h-29.9v-161.6c12.2-0.7 26.7-0.9 44.6-0.9 34.1 0 56.1 15.3 56.1 46.9 0 23-16.5 40.2-38 43.9 4.3 5.8 8.7 12.2 12.4 17.7l36 54h-37l-41.7-66.6h-2.5zm0-88.6c2 0.2 6.2 0.4 10.7 0.4 17.9 0 28.9-10 28.9-24.4 0-14.9-9.1-25.6-27.9-25.6-4.4 0-8.7 0.2-11.7 0.7zm140.3 90.9c-30.9 0-55.8-26.5-55.8-59.2 0-32.8 24.9-59.2 55.8-59.2 30.9 0 55.8 26.4 55.8 59.2 0 32.7-24.9 59.2-55.8 59.2zm25.6-59.3c0-19-11.5-34.4-25.6-34.4-14.1 0-25.6 15.4-25.6 34.4 0 19 11.5 34.3 25.6 34.3 14.1 0 25.6-15.3 25.6-34.3zm48 114.1c-4.8 0-11.7-0.7-16-1.6l3.4-25.2c4.4 1.4 9.6 2.3 14.5 2.3 9.6 0 19.7-4.6 25.9-22.5l3.6-10.1-42.2-113.8h32.8l15.4 43.5c3.2 9.8 6.4 21.1 8.9 31.4h0.3c2.5-10.3 7.3-25.7 11-36.2l13.5-38.7h31.4l-45.2 120.3c-14.8 39.4-30.9 50.6-57.3 50.6zm108.4-87.3c0-27.1 25.9-39.7 65.8-39.7v-4.1c0-13.7-5.2-19.9-20.4-19.9-10.3 0-24.3 3.4-34.4 7.8l-4.8-22.5c11.5-4.6 27.8-7.8 43.2-7.8 35.3 0 45.8 14.7 45.8 40.1v47c0 9.2 0.2 20 0.9 29.3h-28v-17.7c-6 11.9-19.3 20-35.5 20-20.6 0-32.6-13.9-32.6-32.5zm28.3-3.2c0 7.3 5.2 13.3 13.7 13.3 14.2 0 23.8-13.8 23.8-27.5v-3c-29.5 0-37.5 7.3-37.5 17.2zm90.7-133.8h29.4v167.2h-29.4zm144.8 167.8c-10.3 0-25.7-0.5-45.2-0.5v-160.4c13.1-0.7 32.6-1.2 51.4-1.2 33.2 0 51.8 14.3 51.8 39 0 15.4-8.5 29.5-23.4 35.4v0.5c16.5 3.5 27.8 18.1 27.8 35.3 0 23.9-17 51.9-62.4 51.9zm-15.4-95.7c3.7 0.3 7.4 0.3 12.2 0.3 20.4 0 29.6-9.1 29.6-22.9 0-11.4-6.9-19.9-25-19.9-6.5 0-12 0.2-16.8 0.4zm0 70.9c3.7 0.2 11 0.7 16.5 0.7 19.5 0 29.4-13.3 29.4-26.8 0-14.7-12.4-22.3-32.8-22.3-2.1 0-9.9 0-13.1 0.2zm160.7-45.6v-4.1c0-13.8-5.3-19.9-20.4-19.9-10.3 0-24.3 3.4-34.4 7.8l-4.8-22.5c11.4-4.6 27.7-7.8 43.1-7.8 35.3 0 45.9 14.7 45.9 40.1v47c0 9.1 0.2 19.9 0.9 29.3h-28v-17.7c-6 11.9-19.4 20-35.5 20-20.7 0-32.6-14-32.6-32.5 0-27.1 25.9-39.7 65.8-39.7zm0 19.3c-29.6 0-37.6 7.3-37.6 17.2 0 7.3 5.3 13.2 13.7 13.2 14.3 0 23.9-13.7 23.9-27.4zm82.6 50.6h-29.3v-113.9h27.7v18.1c7.2-12 19.9-20.4 37.4-20.4 25.7 0 33.9 16.3 33.9 36.2v80h-29.1v-72.8c0-11.7-3.2-18.8-14.2-18.8-14.7 0-26.4 16.7-26.4 36.6zm121.9 0h-29.4v-167.3h29.4v95.3l33.2-41.9h35.8l-42.1 52.1 45.1 61.8h-36.7l-35.3-52.6zm-918.4 247.9c-30.9 0-55.8-26.5-55.8-59.2 0-32.8 24.9-59.2 55.8-59.2 30.9 0 55.8 26.4 55.8 59.2 0 32.7-24.9 59.2-55.8 59.2zm25.6-59.3c0-19-11.4-34.4-25.6-34.4-14.1 0-25.6 15.4-25.6 34.4 0 19 11.5 34.4 25.6 34.4 14.2 0 25.6-15.4 25.6-34.4zm105.6-111.8c6.1 0 12.6 0.5 18.5 1.9l-2 24.1c-4.6-1.6-9.9-2.1-14.2-2.1-12.9 0-18.6 6.7-18.6 21.8v9.6h26.6v22.7h-26.6v91.2h-29.1v-91.2h-20v-22.7h20v-9.4c0-30.7 14.2-45.9 45.4-45.9zm158.3 121.4c0 28.6-24.1 50-59.8 50-13.8 0-25.5-1.4-35.8-4.2l3.2-28.6c9.9 4.1 21.3 6.7 33.7 6.7 14 0 25.9-5.8 25.9-20.2 0-29.6-65.1-20.4-65.1-71.3 0-27.5 21.1-46.5 58.5-46.5 8.4 0 19.2 1.2 27.9 3l-2.7 26.1c-8.5-2.7-17.4-4.3-26.6-4.3-17.4 0-25.4 7.5-25.4 18.5 0 27.5 66.2 21.8 66.2 70.8zm91.9 19.7l3.9 24.5c-9 3.5-21.1 5.3-32.1 5.3-31.7 0-51.4-16.5-51.4-55.2 0-35.6 18.6-62.8 58-62.8 8.7 0 17.7 1.4 25 3.9l-4.6 25.2c-6.2-2.5-13.7-4.4-21.3-4.4-17.4 0-26.3 14-26.3 35.1 0 19.5 7 33 26.5 33 7.8 0 15.6-1.6 22.3-4.6zm66.2 30c-30.9 0-55.8-26.5-55.8-59.2 0-32.8 24.9-59.2 55.8-59.2 30.9 0 55.9 26.4 55.9 59.2 0 32.7-25 59.2-55.9 59.2zm25.6-59.3c0-19-11.4-34.4-25.6-34.4-14.1 0-25.6 15.4-25.6 34.4 0 19 11.5 34.4 25.6 34.4 14.2 0 25.6-15.4 25.6-34.4zm115.5 33l2.1 23.1c-7.4 1.9-16.8 3.2-24.8 3.2-25.2 0-33-9.1-33-35.7v-57.8h-19.7v-22.7h19.7v-39.9l29.1-7.8v47.7h27.7v22.7h-27.7v50c0 14.7 3.4 18.8 13.5 18.8 4.9 0 9.2-0.5 13.1-1.6zm20.7-142.9h29.4v167.3h-29.4zm141.5 137.9c0 9.2 0.2 19.9 0.9 29.3h-28v-17.8c-5.9 11.9-19.3 20.1-35.5 20.1-20.6 0-32.6-13.9-32.6-32.5 0-27 25.9-39.7 65.8-39.7v-4.1c0-13.8-5.2-19.9-20.4-19.9-10.3 0-24.3 3.4-34.4 7.8l-4.8-22.5c11.5-4.6 27.8-7.8 43.1-7.8 35.4 0 45.9 14.7 45.9 40.1zm-29.4-21.3c-29.5 0-37.5 7.3-37.5 17.1 0 7.4 5.2 13.4 13.7 13.4 14.2 0 23.8-13.8 23.8-27.6zm148-29.2v79.9h-29.1v-72.9c0-11.6-3.2-18.7-14.2-18.7-14.7 0-26.4 16.7-26.4 36.7v54.9h-29.3v-113.9h27.7v18.2c7.2-12.1 19.9-20.4 37.4-20.4 25.7 0 33.9 16.2 33.9 36.2zm120.9-87.5v167.3h-27.3v-17.3c-6.3 11.7-18.5 19.8-35.1 19.8-27.7 0-41.5-20.8-41.5-53.3 0-38.6 22.5-65.1 60.3-65.1 4.8 0 9.4 0.2 14.5 0.9v-52.3zm-29.2 76.4c-5.2-1.2-10.3-1.9-15.3-1.9-16.8 0-28.7 10.5-28.7 38.7 0 21.3 6.2 32.4 19.5 32.4 15.3 0 24.5-17.9 24.5-37.4z"/>
			</g>
		</g>
	</g>
</svg>