<svg version="1.2" baseProfile="tiny-ps" xmlns="http://www.w3.org/2000/svg" viewBox="0 0 1545 986" width="1545" height="986">
	<title>RR_Donnelley_logo-svg</title>
	<style>
		tspan { white-space:pre }
		.shp0 { fill: #ffffff } 
	</style>
	<g id="layer1">
		<g id="g3506">
			<path id="path3439" class="shp0" d="M1541.46 0.92C1543.69 0.92 1544.8 3.15 1544.8 5.38L1544.8 977.08C1544.8 979.3 1542.57 981.53 1540.35 981.53L1392.29 981.53C1390.06 981.53 1387.84 979.3 1387.84 977.08L1387.84 902.5C1323.27 951.48 1242 980.42 1152.95 980.42C1150.72 980.42 1149.61 980.42 1147.38 980.42C1056.09 980.42 987.07 950.36 952.56 930.33C944.77 926.99 935.87 920.31 925.85 913.63C923.62 910.29 921.39 905.84 922.51 902.5L961.47 753.35C962.58 750.01 967.03 747.79 970.38 751.13C980.39 760.03 989.3 767.82 998.21 774.5C1016.02 786.74 1030.49 794.54 1034.94 796.76C1036.05 797.88 1037.17 797.88 1037.17 797.88C1051.64 805.67 1067.23 811.23 1080.58 815.69C1082.81 815.69 1085.04 816.8 1088.38 817.91L1089.49 817.91C1091.72 819.02 1095.06 819.02 1097.28 820.14C1097.28 820.14 1097.28 820.14 1098.4 820.14C1116.21 823.47 1135.14 824.59 1154.06 824.59C1284.31 824.59 1388.95 719.96 1388.95 589.73L1388.95 5.38C1388.95 3.15 1391.18 0.92 1393.4 0.92L1541.46 0.92L1541.46 0.92Z" />
			<path id="path3441" class="shp0" d="M592.99 248.02C600.79 251.36 610.81 258.04 619.71 263.61C621.94 266.95 624.17 271.4 623.05 274.74L585.2 426.11C584.09 429.45 579.64 431.68 576.3 428.34C566.28 419.44 557.37 411.64 548.47 404.97C530.66 392.72 516.18 384.93 511.73 382.7C510.62 381.59 509.5 381.59 509.5 381.59C495.03 373.8 479.45 368.23 466.09 363.78C463.86 363.78 461.64 362.67 458.3 361.55L457.18 361.55C454.95 360.44 451.61 360.44 449.39 359.33C449.39 359.33 449.39 359.33 448.27 359.33C430.46 355.99 411.54 354.88 392.61 354.88C262.36 354.88 157.72 459.5 157.72 589.73L157.72 979.3C157.72 981.53 155.49 983.76 153.27 983.76L5.21 983.76C2.98 983.76 0.76 981.53 0.76 979.3L0.76 202.39C0.76 200.16 1.87 196.82 5.21 197.94L153.27 197.94C155.5 197.94 157.72 200.16 157.72 202.39L157.72 275.85C222.29 226.88 303.55 197.94 392.61 197.94C394.84 197.94 395.95 197.94 398.18 197.94C490.58 197.94 559.6 227.99 592.99 248.02L592.99 248.02Z" />
			<path id="path3443" class="shp0" d="M1093.95 354.88C963.7 354.88 857.94 459.51 859.06 589.73L859.06 981.53C859.06 983.76 856.83 985.98 854.6 985.98L706.54 985.98C704.32 985.98 702.09 983.76 702.09 981.53L702.09 204.61C702.09 202.39 704.32 200.16 706.54 200.16L855.72 200.16C857.94 200.16 860.17 202.39 860.17 204.61L860.17 278.08C924.74 229.1 1006 200.16 1095.06 200.16C1097.29 200.16 1098.4 200.16 1100.63 200.16C1193.03 200.16 1262.05 230.21 1295.44 249.14C1303.24 252.48 1312.14 259.15 1322.16 265.83C1324.39 269.17 1326.62 273.62 1325.5 276.96L1286.54 426.11C1285.42 429.45 1280.97 431.68 1277.63 428.34C1267.61 419.44 1258.71 411.64 1249.8 404.97C1231.99 392.72 1217.52 384.93 1213.06 382.7C1211.95 381.59 1210.84 381.59 1210.84 381.59C1196.37 373.8 1180.78 368.23 1167.42 363.78C1165.2 363.78 1162.97 362.67 1159.63 361.55L1158.52 361.55C1156.29 360.44 1152.95 360.44 1150.72 359.33C1150.72 359.33 1150.72 359.33 1149.61 359.33C1131.8 355.99 1112.87 354.88 1093.95 354.88L1093.95 354.88Z" />
		</g>
	</g>
</svg>