<svg xmlns="http://www.w3.org/2000/svg" viewBox="0 0 397.76 161.54"><defs><style>.cls-1{fill:#6100dc;fill-rule:evenodd;}</style></defs><g id="Layer_2" data-name="Layer 2"><g id="Layer_1-2" data-name="Layer 1"><g id="Symbols"><g id="Design-_-Header-_-Header-White" data-name="Design-/-Header-/-Header-White"><g id="Your-Logo"><path id="revised-logo" class="cls-1" d="M50.89,137.59a6.08,6.08,0,0,1,7.94-3.27h0l.45.2a6,6,0,0,1,2.84,7.7h0L55.64,157.8a6.07,6.07,0,0,1-11.23-4.63h0Zm242.19-85.8a29.28,29.28,0,1,1-17.21,53h0v24.3H263.72v-48A29.31,29.31,0,0,1,293.08,51.79ZM119.22,53.28l17.14,42,17.46-41.95H166l-31.29,75.23H122.52l8.22-19.75L107.07,53.28ZM19.4,99.67A6.1,6.1,0,0,1,27.34,103h0l.17.47a6.05,6.05,0,0,1-3.46,7.44h0L8.4,117.31a6.05,6.05,0,1,1-4.65-11.18h0ZM80.85,51.78c16.69,0,24.07,7.36,24.07,16.74v1.16h-12v-.63c0-4.37-3.63-8.11-12.09-8.11-7.6,0-11.88,2.67-11.88,7.78,0,12,37,.85,37,23.56,0,10.23-8.46,17.48-24.83,17.48C63,109.76,56.24,102,56.24,93.24a6.51,6.51,0,0,1,.1-1.39h12v.54c0,4.48,4.38,8.1,12.83,8.1,8,0,12.84-2.55,12.84-7.89,0-11.51-37-.85-37-23.44C57,58.93,65.77,51.78,80.85,51.78Zm151,0c14.56,0,23.33,7.57,23.33,25.69h0v30.8H243V77.47C243.09,66.81,238.49,62,230.46,62s-12.59,5.22-12.59,16h0v30.27H205.71V77.47c0-10.66-4.57-15.45-12.59-15.45s-12.57,5.22-12.57,16h0v30.27H168.4V78c0-18.12,8.88-26.22,23.44-26.22,9.41,0,15.94,3.09,19.58,10.34h1.07C216.12,55.09,222.54,51.78,231.85,51.78ZM342,31.34v76.85H329.89V31.34ZM374.28,51.8c7.05,0,12.91,2,16.94,5.91,4.34,4.15,6.54,10.2,6.54,18v1.58H385.71V75.58c0-8.24-3.85-12.42-11.43-12.42s-11.42,4.18-11.42,12.42v32.61H350.71V75.58C350.71,60.47,359.31,51.8,374.28,51.8ZM293.09,63.9a17.17,17.17,0,1,0,17.25,17.17A17.23,17.23,0,0,0,293.09,63.9ZM.46,47.51A6.09,6.09,0,0,1,8.4,44.23h0l15.65,6.46a6,6,0,0,1,3.29,7.9h0l-.21.45a6.09,6.09,0,0,1-7.73,2.83h0L3.75,55.41A6,6,0,0,1,.46,47.51ZM47.7.46a6.09,6.09,0,0,1,7.94,3.28h0l6.48,15.58a6.05,6.05,0,0,1-3.29,7.91h0l-.47.17A6.1,6.1,0,0,1,50.89,24h0L44.41,8.37A6.05,6.05,0,0,1,47.7.46Zm58.86,3.28A6.09,6.09,0,0,1,114.5.46h0l.45.21a6,6,0,0,1,2.84,7.7h0L111.31,24a6.07,6.07,0,0,1-11.23-4.63h0Z"/></g></g></g></g></g></svg>